solid OpenSCAD_Model
  facet normal 0.998401 0.056521 0
    outer loop
      vertex -55.141 -3.46918 4.24837e-16
      vertex -55.1802 -2.776 -2.5
      vertex -55.1802 -2.776 3.39951e-16
    endloop
  endfacet
  facet normal 0.998401 0.056521 0
    outer loop
      vertex -55.1802 -2.776 -2.5
      vertex -55.141 -3.46918 4.24837e-16
      vertex -55.141 -3.46918 -2.5
    endloop
  endfacet
  facet normal 0.999033 -0.0439662 0
    outer loop
      vertex -55.2107 2.08238 -2.5501e-16
      vertex -55.1802 2.776 -2.5
      vertex -55.1802 2.776 -3.39951e-16
    endloop
  endfacet
  facet normal 0.999033 -0.0439662 0
    outer loop
      vertex -55.1802 2.776 -2.5
      vertex -55.2107 2.08238 -2.5501e-16
      vertex -55.2107 2.08238 -2.5
    endloop
  endfacet
  facet normal 0.999822 -0.0188458 0
    outer loop
      vertex -55.2456 0.694273 -8.50211e-17
      vertex -55.2326 1.38844 -2.5
      vertex -55.2326 1.38844 -1.70029e-16
    endloop
  endfacet
  facet normal 0.999822 -0.0188458 0
    outer loop
      vertex -55.2326 1.38844 -2.5
      vertex -55.2456 0.694273 -8.50211e-17
      vertex -55.2456 0.694273 -2.5
    endloop
  endfacet
  facet normal -1.85276e-24 1.22461e-16 1
    outer loop
      vertex -60.2072 2.27083 -2.78088e-16
      vertex -55.2107 2.08238 -2.5501e-16
      vertex -60.1739 3.02722 -3.70715e-16
    endloop
  endfacet
  facet normal 5.09722e-24 1.22461e-16 1
    outer loop
      vertex -55.1802 2.776 -3.39951e-16
      vertex -60.1739 3.02722 -3.70715e-16
      vertex -55.2107 2.08238 -2.5501e-16
    endloop
  endfacet
  facet normal 5.82288e-24 1.22461e-16 1
    outer loop
      vertex -60.1739 3.02722 -3.70715e-16
      vertex -55.1802 2.776 -3.39951e-16
      vertex -60.1311 3.78313 -4.63284e-16
    endloop
  endfacet
  facet normal -3.98269e-25 1.22461e-16 1
    outer loop
      vertex -55.141 3.46918 -4.24837e-16
      vertex -60.1311 3.78313 -4.63284e-16
      vertex -55.1802 2.776 -3.39951e-16
    endloop
  endfacet
  facet normal -8.16206e-25 1.22461e-16 1
    outer loop
      vertex -60.1311 3.78313 -4.63284e-16
      vertex -55.141 3.46918 -4.24837e-16
      vertex -60.1161 4 -4.89843e-16
    endloop
  endfacet
  facet normal -0 1.22461e-16 1
    outer loop
      vertex -60.1161 4 -4.89843e-16
      vertex -55.141 3.46918 -4.24837e-16
      vertex -55.1042 4 -4.89843e-16
    endloop
  endfacet
  facet normal -3.79958e-27 1.22461e-16 1
    outer loop
      vertex -55.2107 2.08238 -2.5501e-16
      vertex -60.2072 2.27083 -2.78088e-16
      vertex -55.2326 1.38844 -1.70029e-16
    endloop
  endfacet
  facet normal 8.81476e-25 1.22461e-16 1
    outer loop
      vertex -60.231 1.51409 -1.85416e-16
      vertex -55.2326 1.38844 -1.70029e-16
      vertex -60.2072 2.27083 -2.78088e-16
    endloop
  endfacet
  facet normal 2.42777e-25 1.22461e-16 1
    outer loop
      vertex -55.2326 1.38844 -1.70029e-16
      vertex -60.231 1.51409 -1.85416e-16
      vertex -55.2456 0.694273 -8.50211e-17
    endloop
  endfacet
  facet normal -9.7472e-25 1.22461e-16 1
    outer loop
      vertex -60.2452 0.757103 -9.27153e-17
      vertex -55.2456 0.694273 -8.50211e-17
      vertex -60.231 1.51409 -1.85416e-16
    endloop
  endfacet
  facet normal -8.72189e-25 1.22461e-16 1
    outer loop
      vertex -55.2456 0.694273 -8.50211e-17
      vertex -60.2452 0.757103 -9.27153e-17
      vertex -55.25 0 0
    endloop
  endfacet
  facet normal -0 1.22461e-16 1
    outer loop
      vertex -60.25 0 0
      vertex -55.25 0 0
      vertex -60.2452 0.757103 -9.27153e-17
    endloop
  endfacet
  facet normal 0 1.22461e-16 1
    outer loop
      vertex -55.25 0 0
      vertex -60.25 0 0
      vertex -55.2456 -0.694273 8.50211e-17
    endloop
  endfacet
  facet normal 7.99808e-25 1.22461e-16 1
    outer loop
      vertex -60.2452 -0.757103 9.27153e-17
      vertex -55.2456 -0.694273 8.50211e-17
      vertex -60.25 0 0
    endloop
  endfacet
  facet normal 0 1.22461e-16 1
    outer loop
      vertex -55.141 -3.46918 4.24837e-16
      vertex -60.1161 -4 4.89843e-16
      vertex -55.1042 -4 4.89843e-16
    endloop
  endfacet
  facet normal 8.81412e-25 1.22461e-16 1
    outer loop
      vertex -55.2456 -0.694273 8.50211e-17
      vertex -60.2452 -0.757103 9.27153e-17
      vertex -55.2326 -1.38844 1.70029e-16
    endloop
  endfacet
  facet normal 8.16206e-25 1.22461e-16 1
    outer loop
      vertex -60.1161 -4 4.89843e-16
      vertex -55.141 -3.46918 4.24837e-16
      vertex -60.1311 -3.78313 4.63284e-16
    endloop
  endfacet
  facet normal -5.6175e-26 1.22461e-16 1
    outer loop
      vertex -60.231 -1.51409 1.85416e-16
      vertex -55.2326 -1.38844 1.70029e-16
      vertex -60.2452 -0.757103 9.27153e-17
    endloop
  endfacet
  facet normal -1.54105e-24 1.22461e-16 1
    outer loop
      vertex -60.1311 -3.78313 4.63284e-16
      vertex -55.141 -3.46918 4.24837e-16
      vertex -60.1739 -3.02722 3.70715e-16
    endloop
  endfacet
  facet normal -7.55415e-25 1.22461e-16 1
    outer loop
      vertex -55.2326 -1.38844 1.70029e-16
      vertex -60.231 -1.51409 1.85416e-16
      vertex -55.2107 -2.08238 2.5501e-16
    endloop
  endfacet
  facet normal -4.27106e-24 1.22461e-16 1
    outer loop
      vertex -55.1802 -2.776 3.39951e-16
      vertex -60.1739 -3.02722 3.70715e-16
      vertex -55.141 -3.46918 4.24837e-16
    endloop
  endfacet
  facet normal -1.85266e-25 1.22461e-16 1
    outer loop
      vertex -60.2072 -2.27083 2.78088e-16
      vertex -55.2107 -2.08238 2.5501e-16
      vertex -60.231 -1.51409 1.85416e-16
    endloop
  endfacet
  facet normal -3.2493e-24 1.22461e-16 1
    outer loop
      vertex -60.1739 -3.02722 3.70715e-16
      vertex -55.1802 -2.776 3.39951e-16
      vertex -60.2072 -2.27083 2.78088e-16
    endloop
  endfacet
  facet normal 4.66567e-25 1.22461e-16 1
    outer loop
      vertex -55.2107 -2.08238 2.5501e-16
      vertex -60.2072 -2.27083 2.78088e-16
      vertex -55.1802 -2.776 3.39951e-16
    endloop
  endfacet
  facet normal 0.99998 0.00628561 -7.49571e-19
    outer loop
      vertex -55.2456 -0.694273 8.50211e-17
      vertex -55.25 -3.06152e-16 -2.5
      vertex -55.25 0 0
    endloop
  endfacet
  facet normal 0.99998 0.00628561 0
    outer loop
      vertex -55.25 -3.06152e-16 -2.5
      vertex -55.2456 -0.694273 8.50211e-17
      vertex -55.2456 -0.694273 -2.5
    endloop
  endfacet
  facet normal 0.999033 0.0439662 0
    outer loop
      vertex -55.1802 -2.776 3.39951e-16
      vertex -55.2107 -2.08238 -2.5
      vertex -55.2107 -2.08238 2.5501e-16
    endloop
  endfacet
  facet normal 0.999033 0.0439662 0
    outer loop
      vertex -55.2107 -2.08238 -2.5
      vertex -55.1802 -2.776 3.39951e-16
      vertex -55.1802 -2.776 -2.5
    endloop
  endfacet
  facet normal 0.999507 0.0314115 0
    outer loop
      vertex -55.2107 -2.08238 2.5501e-16
      vertex -55.2326 -1.38844 -2.5
      vertex -55.2326 -1.38844 1.70029e-16
    endloop
  endfacet
  facet normal 0.999507 0.0314115 0
    outer loop
      vertex -55.2326 -1.38844 -2.5
      vertex -55.2107 -2.08238 2.5501e-16
      vertex -55.2107 -2.08238 -2.5
    endloop
  endfacet
  facet normal 0.997612 0.0690609 0
    outer loop
      vertex -55.1042 -4 4.89843e-16
      vertex -55.141 -3.46918 -2.5
      vertex -55.141 -3.46918 4.24837e-16
    endloop
  endfacet
  facet normal 0.997612 0.0690609 0
    outer loop
      vertex -55.141 -3.46918 -2.5
      vertex -55.1042 -4 4.89843e-16
      vertex -55.1042 -4 -2.5
    endloop
  endfacet
  facet normal 0.998401 -0.056521 0
    outer loop
      vertex -55.1802 2.776 -3.39951e-16
      vertex -55.141 3.46918 -2.5
      vertex -55.141 3.46918 -4.24837e-16
    endloop
  endfacet
  facet normal 0.998401 -0.056521 0
    outer loop
      vertex -55.141 3.46918 -2.5
      vertex -55.1802 2.776 -3.39951e-16
      vertex -55.1802 2.776 -2.5
    endloop
  endfacet
  facet normal 0.999507 -0.0314115 0
    outer loop
      vertex -55.2326 1.38844 -1.70029e-16
      vertex -55.2107 2.08238 -2.5
      vertex -55.2107 2.08238 -2.5501e-16
    endloop
  endfacet
  facet normal 0.999507 -0.0314115 0
    outer loop
      vertex -55.2107 2.08238 -2.5
      vertex -55.2326 1.38844 -1.70029e-16
      vertex -55.2326 1.38844 -2.5
    endloop
  endfacet
  facet normal 0.99998 -0.00628561 0
    outer loop
      vertex -55.25 0 0
      vertex -55.2456 0.694273 -2.5
      vertex -55.2456 0.694273 -8.50211e-17
    endloop
  endfacet
  facet normal 0.99998 -0.00628561 7.49571e-19
    outer loop
      vertex -55.2456 0.694273 -2.5
      vertex -55.25 0 0
      vertex -55.25 -3.06152e-16 -2.5
    endloop
  endfacet
  facet normal 0.999822 0.0188458 0
    outer loop
      vertex -55.2326 -1.38844 1.70029e-16
      vertex -55.2456 -0.694273 -2.5
      vertex -55.2456 -0.694273 8.50211e-17
    endloop
  endfacet
  facet normal 0.999822 0.0188458 0
    outer loop
      vertex -55.2456 -0.694273 -2.5
      vertex -55.2326 -1.38844 1.70029e-16
      vertex -55.2326 -1.38844 -2.5
    endloop
  endfacet
  facet normal 0.997612 -0.0690609 0
    outer loop
      vertex -55.141 3.46918 -4.24837e-16
      vertex -55.1042 4 -2.5
      vertex -55.1042 4 -4.89843e-16
    endloop
  endfacet
  facet normal 0.997612 -0.0690609 0
    outer loop
      vertex -55.1042 4 -2.5
      vertex -55.141 3.46918 -4.24837e-16
      vertex -55.141 3.46918 -2.5
    endloop
  endfacet
  facet normal -0.99998 -0.00628294 -0
    outer loop
      vertex -60.2452 -0.757103 -2.5
      vertex -60.25 -6.73533e-16 -5.5
      vertex -60.2452 -0.757103 -5.5
    endloop
  endfacet
  facet normal -0.99998 -0.00628294 7.69413e-19
    outer loop
      vertex -60.25 -6.73533e-16 -5.5
      vertex -60.2452 -0.757103 -2.5
      vertex -60.25 0 0
    endloop
  endfacet
  facet normal -0.99998 -0.00628294 0
    outer loop
      vertex -60.25 0 0
      vertex -60.2452 -0.757103 -2.5
      vertex -60.2452 -0.757103 9.27153e-17
    endloop
  endfacet
  facet normal -0.999033 0.0439704 0
    outer loop
      vertex -60.2072 2.27083 -2.5
      vertex -60.1739 3.02722 -2.5
      vertex -60.1739 3.02722 -5.5
    endloop
  endfacet
  facet normal -0.999033 0.0439704 0
    outer loop
      vertex -60.2072 2.27083 -2.5
      vertex -60.1739 3.02722 -5.5
      vertex -60.2072 2.27083 -5.5
    endloop
  endfacet
  facet normal -0.999033 0.0439704 0
    outer loop
      vertex -60.1739 3.02722 -2.5
      vertex -60.2072 2.27083 -2.5
      vertex -60.1739 3.02722 -3.70715e-16
    endloop
  endfacet
  facet normal -0.999033 0.0439704 0
    outer loop
      vertex -60.1739 3.02722 -3.70715e-16
      vertex -60.2072 2.27083 -2.5
      vertex -60.2072 2.27083 -2.78088e-16
    endloop
  endfacet
  facet normal -0.998402 -0.0565162 0
    outer loop
      vertex -60.1311 -3.78313 -2.5
      vertex -60.1739 -3.02722 -2.5
      vertex -60.1739 -3.02722 -5.5
    endloop
  endfacet
  facet normal -0.998402 -0.0565162 -0
    outer loop
      vertex -60.1311 -3.78313 -2.5
      vertex -60.1739 -3.02722 -5.5
      vertex -60.1311 -3.78313 -5.5
    endloop
  endfacet
  facet normal -0.998402 -0.0565162 0
    outer loop
      vertex -60.1739 -3.02722 -2.5
      vertex -60.1311 -3.78313 -2.5
      vertex -60.1739 -3.02722 3.70715e-16
    endloop
  endfacet
  facet normal -0.998402 -0.0565162 0
    outer loop
      vertex -60.1739 -3.02722 3.70715e-16
      vertex -60.1311 -3.78313 -2.5
      vertex -60.1311 -3.78313 4.63284e-16
    endloop
  endfacet
  facet normal -0.999507 -0.0314096 0
    outer loop
      vertex -60.2072 -2.27083 -2.5
      vertex -60.231 -1.51409 -2.5
      vertex -60.231 -1.51409 -5.5
    endloop
  endfacet
  facet normal -0.999507 -0.0314096 -0
    outer loop
      vertex -60.2072 -2.27083 -2.5
      vertex -60.231 -1.51409 -5.5
      vertex -60.2072 -2.27083 -5.5
    endloop
  endfacet
  facet normal -0.999507 -0.0314096 0
    outer loop
      vertex -60.231 -1.51409 -2.5
      vertex -60.2072 -2.27083 -2.5
      vertex -60.231 -1.51409 1.85416e-16
    endloop
  endfacet
  facet normal -0.999507 -0.0314096 0
    outer loop
      vertex -60.231 -1.51409 1.85416e-16
      vertex -60.2072 -2.27083 -2.5
      vertex -60.2072 -2.27083 2.78088e-16
    endloop
  endfacet
  facet normal -0.997612 -0.0690677 0
    outer loop
      vertex -60.1161 -4 -5.5
      vertex -60.1311 -3.78313 -2.5
      vertex -60.1311 -3.78313 -5.5
    endloop
  endfacet
  facet normal -0.997612 -0.0690677 -0
    outer loop
      vertex -60.1161 -4 4.89843e-16
      vertex -60.1311 -3.78313 -2.5
      vertex -60.1161 -4 -5.5
    endloop
  endfacet
  facet normal -0.997612 -0.0690677 0
    outer loop
      vertex -60.1311 -3.78313 -2.5
      vertex -60.1161 -4 4.89843e-16
      vertex -60.1311 -3.78313 4.63284e-16
    endloop
  endfacet
  facet normal -0.999033 -0.0439704 0
    outer loop
      vertex -60.1739 -3.02722 -2.5
      vertex -60.2072 -2.27083 -2.5
      vertex -60.2072 -2.27083 -5.5
    endloop
  endfacet
  facet normal -0.999033 -0.0439704 -0
    outer loop
      vertex -60.1739 -3.02722 -2.5
      vertex -60.2072 -2.27083 -5.5
      vertex -60.1739 -3.02722 -5.5
    endloop
  endfacet
  facet normal -0.999033 -0.0439704 0
    outer loop
      vertex -60.2072 -2.27083 -2.5
      vertex -60.1739 -3.02722 -2.5
      vertex -60.2072 -2.27083 2.78088e-16
    endloop
  endfacet
  facet normal -0.999033 -0.0439704 0
    outer loop
      vertex -60.2072 -2.27083 2.78088e-16
      vertex -60.1739 -3.02722 -2.5
      vertex -60.1739 -3.02722 3.70715e-16
    endloop
  endfacet
  facet normal -0.999822 -0.0188488 0
    outer loop
      vertex -60.231 -1.51409 -2.5
      vertex -60.2452 -0.757103 -2.5
      vertex -60.2452 -0.757103 -5.5
    endloop
  endfacet
  facet normal -0.999822 -0.0188488 -0
    outer loop
      vertex -60.231 -1.51409 -2.5
      vertex -60.2452 -0.757103 -5.5
      vertex -60.231 -1.51409 -5.5
    endloop
  endfacet
  facet normal -0.999822 -0.0188488 0
    outer loop
      vertex -60.2452 -0.757103 -2.5
      vertex -60.231 -1.51409 -2.5
      vertex -60.2452 -0.757103 9.27153e-17
    endloop
  endfacet
  facet normal -0.999822 -0.0188488 0
    outer loop
      vertex -60.2452 -0.757103 9.27153e-17
      vertex -60.231 -1.51409 -2.5
      vertex -60.231 -1.51409 1.85416e-16
    endloop
  endfacet
  facet normal -0.998402 0.0565162 0
    outer loop
      vertex -60.1739 3.02722 -2.5
      vertex -60.1311 3.78313 -2.5
      vertex -60.1311 3.78313 -5.5
    endloop
  endfacet
  facet normal -0.998402 0.0565162 0
    outer loop
      vertex -60.1739 3.02722 -2.5
      vertex -60.1311 3.78313 -5.5
      vertex -60.1739 3.02722 -5.5
    endloop
  endfacet
  facet normal -0.998402 0.0565162 0
    outer loop
      vertex -60.1311 3.78313 -2.5
      vertex -60.1739 3.02722 -2.5
      vertex -60.1311 3.78313 -4.63284e-16
    endloop
  endfacet
  facet normal -0.998402 0.0565162 0
    outer loop
      vertex -60.1311 3.78313 -4.63284e-16
      vertex -60.1739 3.02722 -2.5
      vertex -60.1739 3.02722 -3.70715e-16
    endloop
  endfacet
  facet normal -0.999507 0.0314096 0
    outer loop
      vertex -60.231 1.51409 -2.5
      vertex -60.2072 2.27083 -2.5
      vertex -60.2072 2.27083 -5.5
    endloop
  endfacet
  facet normal -0.999507 0.0314096 0
    outer loop
      vertex -60.231 1.51409 -2.5
      vertex -60.2072 2.27083 -5.5
      vertex -60.231 1.51409 -5.5
    endloop
  endfacet
  facet normal -0.999507 0.0314096 0
    outer loop
      vertex -60.2072 2.27083 -2.5
      vertex -60.231 1.51409 -2.5
      vertex -60.2072 2.27083 -2.78088e-16
    endloop
  endfacet
  facet normal -0.999507 0.0314096 0
    outer loop
      vertex -60.2072 2.27083 -2.78088e-16
      vertex -60.231 1.51409 -2.5
      vertex -60.231 1.51409 -1.85416e-16
    endloop
  endfacet
  facet normal -0.99998 0.00628294 0
    outer loop
      vertex -60.25 -6.73533e-16 -5.5
      vertex -60.2452 0.757103 -2.5
      vertex -60.2452 0.757103 -5.5
    endloop
  endfacet
  facet normal -0.99998 0.00628294 0
    outer loop
      vertex -60.2452 0.757103 -2.5
      vertex -60.25 0 0
      vertex -60.2452 0.757103 -9.27153e-17
    endloop
  endfacet
  facet normal -0.99998 0.00628294 -7.29024e-19
    outer loop
      vertex -60.2452 0.757103 -2.5
      vertex -60.25 -6.73533e-16 -5.5
      vertex -60.25 0 0
    endloop
  endfacet
  facet normal -0.997612 0.0690677 0
    outer loop
      vertex -60.1311 3.78313 -2.5
      vertex -60.1161 4 -5.5
      vertex -60.1311 3.78313 -5.5
    endloop
  endfacet
  facet normal -0.997612 0.0690677 0
    outer loop
      vertex -60.1161 4 -5.5
      vertex -60.1311 3.78313 -2.5
      vertex -60.1161 4 -4.89843e-16
    endloop
  endfacet
  facet normal -0.997612 0.0690677 0
    outer loop
      vertex -60.1161 4 -4.89843e-16
      vertex -60.1311 3.78313 -2.5
      vertex -60.1311 3.78313 -4.63284e-16
    endloop
  endfacet
  facet normal -0.999822 0.0188488 0
    outer loop
      vertex -60.2452 0.757103 -2.5
      vertex -60.231 1.51409 -2.5
      vertex -60.231 1.51409 -5.5
    endloop
  endfacet
  facet normal -0.999822 0.0188488 0
    outer loop
      vertex -60.2452 0.757103 -2.5
      vertex -60.231 1.51409 -5.5
      vertex -60.2452 0.757103 -5.5
    endloop
  endfacet
  facet normal -0.999822 0.0188488 0
    outer loop
      vertex -60.231 1.51409 -2.5
      vertex -60.2452 0.757103 -2.5
      vertex -60.231 1.51409 -1.85416e-16
    endloop
  endfacet
  facet normal -0.999822 0.0188488 0
    outer loop
      vertex -60.231 1.51409 -1.85416e-16
      vertex -60.2452 0.757103 -2.5
      vertex -60.2452 0.757103 -9.27153e-17
    endloop
  endfacet
  facet normal -0 0 1
    outer loop
      vertex -55.2107 2.08238 -2.5
      vertex -52.2129 1.96931 -2.5
      vertex -55.1802 2.776 -2.5
    endloop
  endfacet
  facet normal 0 0 1
    outer loop
      vertex -52.184 2.62527 -2.5
      vertex -55.1802 2.776 -2.5
      vertex -52.2129 1.96931 -2.5
    endloop
  endfacet
  facet normal -0 0 1
    outer loop
      vertex -55.1802 2.776 -2.5
      vertex -52.184 2.62527 -2.5
      vertex -55.141 3.46918 -2.5
    endloop
  endfacet
  facet normal 0 0 1
    outer loop
      vertex -52.1469 3.2808 -2.5
      vertex -55.141 3.46918 -2.5
      vertex -52.184 2.62527 -2.5
    endloop
  endfacet
  facet normal -0 0 1
    outer loop
      vertex -55.141 3.46918 -2.5
      vertex -52.1469 3.2808 -2.5
      vertex -55.1042 4 -2.5
    endloop
  endfacet
  facet normal 0 0 1
    outer loop
      vertex -52.1016 3.93583 -2.5
      vertex -55.1042 4 -2.5
      vertex -52.1469 3.2808 -2.5
    endloop
  endfacet
  facet normal -0 0 1
    outer loop
      vertex -55.1042 4 -2.5
      vertex -52.1016 3.93583 -2.5
      vertex -52.0963 4 -2.5
    endloop
  endfacet
  facet normal 0 0 1
    outer loop
      vertex -52.2129 1.96931 -2.5
      vertex -55.2107 2.08238 -2.5
      vertex -52.2335 1.31305 -2.5
    endloop
  endfacet
  facet normal -0 0 1
    outer loop
      vertex -55.2326 1.38844 -2.5
      vertex -52.2335 1.31305 -2.5
      vertex -55.2107 2.08238 -2.5
    endloop
  endfacet
  facet normal 0 0 1
    outer loop
      vertex -52.2335 1.31305 -2.5
      vertex -55.2326 1.38844 -2.5
      vertex -52.2459 0.656575 -2.5
    endloop
  endfacet
  facet normal -0 0 1
    outer loop
      vertex -55.2456 0.694273 -2.5
      vertex -52.2459 0.656575 -2.5
      vertex -55.2326 1.38844 -2.5
    endloop
  endfacet
  facet normal 0 0 1
    outer loop
      vertex -52.2459 0.656575 -2.5
      vertex -55.2456 0.694273 -2.5
      vertex -52.25 -3.06152e-16 -2.5
    endloop
  endfacet
  facet normal 0 0 1
    outer loop
      vertex -55.25 -3.06152e-16 -2.5
      vertex -52.25 -3.06152e-16 -2.5
      vertex -55.2456 0.694273 -2.5
    endloop
  endfacet
  facet normal 0 0 1
    outer loop
      vertex -52.25 -3.06152e-16 -2.5
      vertex -55.25 -3.06152e-16 -2.5
      vertex -52.2459 -0.656575 -2.5
    endloop
  endfacet
  facet normal 0 -0 1
    outer loop
      vertex -55.2456 -0.694273 -2.5
      vertex -52.2459 -0.656575 -2.5
      vertex -55.25 -3.06152e-16 -2.5
    endloop
  endfacet
  facet normal 0 0 1
    outer loop
      vertex -52.2459 -0.656575 -2.5
      vertex -55.2456 -0.694273 -2.5
      vertex -52.2335 -1.31305 -2.5
    endloop
  endfacet
  facet normal 0 0 1
    outer loop
      vertex -52.1016 -3.93583 -2.5
      vertex -55.1042 -4 -2.5
      vertex -52.0963 -4 -2.5
    endloop
  endfacet
  facet normal 0 -0 1
    outer loop
      vertex -55.2326 -1.38844 -2.5
      vertex -52.2335 -1.31305 -2.5
      vertex -55.2456 -0.694273 -2.5
    endloop
  endfacet
  facet normal 0 0 1
    outer loop
      vertex -52.1469 -3.2808 -2.5
      vertex -55.1042 -4 -2.5
      vertex -52.1016 -3.93583 -2.5
    endloop
  endfacet
  facet normal 0 0 1
    outer loop
      vertex -52.2335 -1.31305 -2.5
      vertex -55.2326 -1.38844 -2.5
      vertex -52.2129 -1.96931 -2.5
    endloop
  endfacet
  facet normal 0 -0 1
    outer loop
      vertex -55.1042 -4 -2.5
      vertex -52.1469 -3.2808 -2.5
      vertex -55.141 -3.46918 -2.5
    endloop
  endfacet
  facet normal 0 -0 1
    outer loop
      vertex -55.2107 -2.08238 -2.5
      vertex -52.2129 -1.96931 -2.5
      vertex -55.2326 -1.38844 -2.5
    endloop
  endfacet
  facet normal 0 -0 1
    outer loop
      vertex -55.141 -3.46918 -2.5
      vertex -52.1469 -3.2808 -2.5
      vertex -55.1802 -2.776 -2.5
    endloop
  endfacet
  facet normal 0 0 1
    outer loop
      vertex -52.2129 -1.96931 -2.5
      vertex -55.2107 -2.08238 -2.5
      vertex -52.184 -2.62527 -2.5
    endloop
  endfacet
  facet normal 0 0 1
    outer loop
      vertex -52.184 -2.62527 -2.5
      vertex -55.1802 -2.776 -2.5
      vertex -52.1469 -3.2808 -2.5
    endloop
  endfacet
  facet normal 0 -0 1
    outer loop
      vertex -55.1802 -2.776 -2.5
      vertex -52.184 -2.62527 -2.5
      vertex -55.2107 -2.08238 -2.5
    endloop
  endfacet
  facet normal 0 -1 0
    outer loop
      vertex -60.1161 -4 4.89843e-16
      vertex -55.1042 -4 -2.5
      vertex -55.1042 -4 4.89843e-16
    endloop
  endfacet
  facet normal 0 -1 0
    outer loop
      vertex -60.1161 -4 -5.5
      vertex -55.1042 -4 -2.5
      vertex -60.1161 -4 4.89843e-16
    endloop
  endfacet
  facet normal 0 -1 0
    outer loop
      vertex -52.0963 -4 -5.5
      vertex -55.1042 -4 -2.5
      vertex -60.1161 -4 -5.5
    endloop
  endfacet
  facet normal 0 -1 0
    outer loop
      vertex -55.1042 -4 -2.5
      vertex -52.0963 -4 -5.5
      vertex -52.0963 -4 -2.5
    endloop
  endfacet
  facet normal 0 1 0
    outer loop
      vertex -52.0963 4 -2.5
      vertex -52.0963 4 -5.5
      vertex -55.1042 4 -2.5
    endloop
  endfacet
  facet normal 0 1 -0
    outer loop
      vertex -55.1042 4 -2.5
      vertex -60.1161 4 -4.89843e-16
      vertex -55.1042 4 -4.89843e-16
    endloop
  endfacet
  facet normal 0 1 0
    outer loop
      vertex -60.1161 4 -5.5
      vertex -55.1042 4 -2.5
      vertex -52.0963 4 -5.5
    endloop
  endfacet
  facet normal 0 1 0
    outer loop
      vertex -55.1042 4 -2.5
      vertex -60.1161 4 -5.5
      vertex -60.1161 4 -4.89843e-16
    endloop
  endfacet
  facet normal 0.99998 0.00628629 -6.60507e-19
    outer loop
      vertex -52.2459 -0.656575 -2.5
      vertex -52.25 -6.73533e-16 -5.5
      vertex -52.25 -3.06152e-16 -2.5
    endloop
  endfacet
  facet normal 0.99998 0.00628629 0
    outer loop
      vertex -52.25 -6.73533e-16 -5.5
      vertex -52.2459 -0.656575 -2.5
      vertex -52.2459 -0.656575 -5.5
    endloop
  endfacet
  facet normal 0.999033 -0.0439691 0
    outer loop
      vertex -52.2129 1.96931 -2.5
      vertex -52.184 2.62527 -5.5
      vertex -52.184 2.62527 -2.5
    endloop
  endfacet
  facet normal 0.999033 -0.0439691 0
    outer loop
      vertex -52.184 2.62527 -5.5
      vertex -52.2129 1.96931 -2.5
      vertex -52.2129 1.96931 -5.5
    endloop
  endfacet
  facet normal 0.998402 0.0565184 0
    outer loop
      vertex -52.1469 -3.2808 -2.5
      vertex -52.184 -2.62527 -5.5
      vertex -52.184 -2.62527 -2.5
    endloop
  endfacet
  facet normal 0.998402 0.0565184 0
    outer loop
      vertex -52.184 -2.62527 -5.5
      vertex -52.1469 -3.2808 -2.5
      vertex -52.1469 -3.2808 -5.5
    endloop
  endfacet
  facet normal 0.999507 0.0314082 0
    outer loop
      vertex -52.2129 -1.96931 -2.5
      vertex -52.2335 -1.31305 -5.5
      vertex -52.2335 -1.31305 -2.5
    endloop
  endfacet
  facet normal 0.999507 0.0314082 0
    outer loop
      vertex -52.2335 -1.31305 -5.5
      vertex -52.2129 -1.96931 -2.5
      vertex -52.2129 -1.96931 -5.5
    endloop
  endfacet
  facet normal 0.996667 0.0815794 0
    outer loop
      vertex -52.0963 -4 -2.5
      vertex -52.1016 -3.93583 -5.5
      vertex -52.1016 -3.93583 -2.5
    endloop
  endfacet
  facet normal 0.996667 0.0815794 0
    outer loop
      vertex -52.1016 -3.93583 -5.5
      vertex -52.0963 -4 -2.5
      vertex -52.0963 -4 -5.5
    endloop
  endfacet
  facet normal 0.997612 0.069062 0
    outer loop
      vertex -52.1016 -3.93583 -2.5
      vertex -52.1469 -3.2808 -5.5
      vertex -52.1469 -3.2808 -2.5
    endloop
  endfacet
  facet normal 0.997612 0.069062 0
    outer loop
      vertex -52.1469 -3.2808 -5.5
      vertex -52.1016 -3.93583 -2.5
      vertex -52.1016 -3.93583 -5.5
    endloop
  endfacet
  facet normal 0.999033 0.0439691 0
    outer loop
      vertex -52.184 -2.62527 -2.5
      vertex -52.2129 -1.96931 -5.5
      vertex -52.2129 -1.96931 -2.5
    endloop
  endfacet
  facet normal 0.999033 0.0439691 0
    outer loop
      vertex -52.2129 -1.96931 -5.5
      vertex -52.184 -2.62527 -2.5
      vertex -52.184 -2.62527 -5.5
    endloop
  endfacet
  facet normal 0.999822 0.0188472 0
    outer loop
      vertex -52.2335 -1.31305 -2.5
      vertex -52.2459 -0.656575 -5.5
      vertex -52.2459 -0.656575 -2.5
    endloop
  endfacet
  facet normal 0.999822 0.0188472 0
    outer loop
      vertex -52.2459 -0.656575 -5.5
      vertex -52.2335 -1.31305 -2.5
      vertex -52.2335 -1.31305 -5.5
    endloop
  endfacet
  facet normal 0.998402 -0.0565184 0
    outer loop
      vertex -52.184 2.62527 -2.5
      vertex -52.1469 3.2808 -5.5
      vertex -52.1469 3.2808 -2.5
    endloop
  endfacet
  facet normal 0.998402 -0.0565184 0
    outer loop
      vertex -52.1469 3.2808 -5.5
      vertex -52.184 2.62527 -2.5
      vertex -52.184 2.62527 -5.5
    endloop
  endfacet
  facet normal 0.996667 -0.0815794 0
    outer loop
      vertex -52.1016 3.93583 -2.5
      vertex -52.0963 4 -5.5
      vertex -52.0963 4 -2.5
    endloop
  endfacet
  facet normal 0.996667 -0.0815794 0
    outer loop
      vertex -52.0963 4 -5.5
      vertex -52.1016 3.93583 -2.5
      vertex -52.1016 3.93583 -5.5
    endloop
  endfacet
  facet normal 0.999507 -0.0314082 0
    outer loop
      vertex -52.2335 1.31305 -2.5
      vertex -52.2129 1.96931 -5.5
      vertex -52.2129 1.96931 -2.5
    endloop
  endfacet
  facet normal 0.999507 -0.0314082 0
    outer loop
      vertex -52.2129 1.96931 -5.5
      vertex -52.2335 1.31305 -2.5
      vertex -52.2335 1.31305 -5.5
    endloop
  endfacet
  facet normal 0.99998 -0.00628629 0
    outer loop
      vertex -52.25 -3.06152e-16 -2.5
      vertex -52.2459 0.656575 -5.5
      vertex -52.2459 0.656575 -2.5
    endloop
  endfacet
  facet normal 0.99998 -0.00628629 6.60507e-19
    outer loop
      vertex -52.2459 0.656575 -5.5
      vertex -52.25 -3.06152e-16 -2.5
      vertex -52.25 -6.73533e-16 -5.5
    endloop
  endfacet
  facet normal 0.997612 -0.069062 0
    outer loop
      vertex -52.1469 3.2808 -2.5
      vertex -52.1016 3.93583 -5.5
      vertex -52.1016 3.93583 -2.5
    endloop
  endfacet
  facet normal 0.997612 -0.069062 0
    outer loop
      vertex -52.1016 3.93583 -5.5
      vertex -52.1469 3.2808 -2.5
      vertex -52.1469 3.2808 -5.5
    endloop
  endfacet
  facet normal 0.999822 -0.0188472 0
    outer loop
      vertex -52.2459 0.656575 -2.5
      vertex -52.2335 1.31305 -5.5
      vertex -52.2335 1.31305 -2.5
    endloop
  endfacet
  facet normal 0.999822 -0.0188472 0
    outer loop
      vertex -52.2335 1.31305 -5.5
      vertex -52.2459 0.656575 -2.5
      vertex -52.2459 0.656575 -5.5
    endloop
  endfacet
  facet normal 0 0 -1
    outer loop
      vertex -60.2072 -2.27083 -5.5
      vertex -52.2129 -1.96931 -5.5
      vertex -60.1739 -3.02722 -5.5
    endloop
  endfacet
  facet normal -0 0 -1
    outer loop
      vertex -52.184 -2.62527 -5.5
      vertex -60.1739 -3.02722 -5.5
      vertex -52.2129 -1.96931 -5.5
    endloop
  endfacet
  facet normal 0 0 -1
    outer loop
      vertex -60.1739 -3.02722 -5.5
      vertex -52.184 -2.62527 -5.5
      vertex -60.1311 -3.78313 -5.5
    endloop
  endfacet
  facet normal -0 0 -1
    outer loop
      vertex -52.1469 -3.2808 -5.5
      vertex -60.1311 -3.78313 -5.5
      vertex -52.184 -2.62527 -5.5
    endloop
  endfacet
  facet normal 0 0 -1
    outer loop
      vertex -60.1311 -3.78313 -5.5
      vertex -52.1469 -3.2808 -5.5
      vertex -60.1161 -4 -5.5
    endloop
  endfacet
  facet normal -0 0 -1
    outer loop
      vertex -52.1016 -3.93583 -5.5
      vertex -60.1161 -4 -5.5
      vertex -52.1469 -3.2808 -5.5
    endloop
  endfacet
  facet normal 0 0 -1
    outer loop
      vertex -60.1161 -4 -5.5
      vertex -52.1016 -3.93583 -5.5
      vertex -52.0963 -4 -5.5
    endloop
  endfacet
  facet normal -0 0 -1
    outer loop
      vertex -52.2129 -1.96931 -5.5
      vertex -60.2072 -2.27083 -5.5
      vertex -52.2335 -1.31305 -5.5
    endloop
  endfacet
  facet normal 0 0 -1
    outer loop
      vertex -60.231 -1.51409 -5.5
      vertex -52.2335 -1.31305 -5.5
      vertex -60.2072 -2.27083 -5.5
    endloop
  endfacet
  facet normal -0 0 -1
    outer loop
      vertex -52.2335 -1.31305 -5.5
      vertex -60.231 -1.51409 -5.5
      vertex -52.2459 -0.656575 -5.5
    endloop
  endfacet
  facet normal 0 0 -1
    outer loop
      vertex -60.2452 -0.757103 -5.5
      vertex -52.2459 -0.656575 -5.5
      vertex -60.231 -1.51409 -5.5
    endloop
  endfacet
  facet normal -0 0 -1
    outer loop
      vertex -52.2459 -0.656575 -5.5
      vertex -60.2452 -0.757103 -5.5
      vertex -52.25 -6.73533e-16 -5.5
    endloop
  endfacet
  facet normal 0 0 -1
    outer loop
      vertex -60.25 -6.73533e-16 -5.5
      vertex -52.25 -6.73533e-16 -5.5
      vertex -60.2452 -0.757103 -5.5
    endloop
  endfacet
  facet normal 0 0 -1
    outer loop
      vertex -52.25 -6.73533e-16 -5.5
      vertex -60.25 -6.73533e-16 -5.5
      vertex -52.2459 0.656575 -5.5
    endloop
  endfacet
  facet normal 0 -0 -1
    outer loop
      vertex -60.2452 0.757103 -5.5
      vertex -52.2459 0.656575 -5.5
      vertex -60.25 -6.73533e-16 -5.5
    endloop
  endfacet
  facet normal 0 0 -1
    outer loop
      vertex -52.2459 0.656575 -5.5
      vertex -60.2452 0.757103 -5.5
      vertex -52.2335 1.31305 -5.5
    endloop
  endfacet
  facet normal 0 0 -1
    outer loop
      vertex -52.1016 3.93583 -5.5
      vertex -60.1161 4 -5.5
      vertex -52.0963 4 -5.5
    endloop
  endfacet
  facet normal 0 -0 -1
    outer loop
      vertex -60.231 1.51409 -5.5
      vertex -52.2335 1.31305 -5.5
      vertex -60.2452 0.757103 -5.5
    endloop
  endfacet
  facet normal 0 0 -1
    outer loop
      vertex -52.1469 3.2808 -5.5
      vertex -60.1161 4 -5.5
      vertex -52.1016 3.93583 -5.5
    endloop
  endfacet
  facet normal 0 0 -1
    outer loop
      vertex -52.2335 1.31305 -5.5
      vertex -60.231 1.51409 -5.5
      vertex -52.2129 1.96931 -5.5
    endloop
  endfacet
  facet normal 0 -0 -1
    outer loop
      vertex -60.1161 4 -5.5
      vertex -52.1469 3.2808 -5.5
      vertex -60.1311 3.78313 -5.5
    endloop
  endfacet
  facet normal 0 -0 -1
    outer loop
      vertex -60.2072 2.27083 -5.5
      vertex -52.2129 1.96931 -5.5
      vertex -60.231 1.51409 -5.5
    endloop
  endfacet
  facet normal 0 -0 -1
    outer loop
      vertex -60.1311 3.78313 -5.5
      vertex -52.1469 3.2808 -5.5
      vertex -60.1739 3.02722 -5.5
    endloop
  endfacet
  facet normal 0 0 -1
    outer loop
      vertex -52.2129 1.96931 -5.5
      vertex -60.2072 2.27083 -5.5
      vertex -52.184 2.62527 -5.5
    endloop
  endfacet
  facet normal 0 0 -1
    outer loop
      vertex -52.184 2.62527 -5.5
      vertex -60.1739 3.02722 -5.5
      vertex -52.1469 3.2808 -5.5
    endloop
  endfacet
  facet normal 0 -0 -1
    outer loop
      vertex -60.1739 3.02722 -5.5
      vertex -52.184 2.62527 -5.5
      vertex -60.2072 2.27083 -5.5
    endloop
  endfacet
endsolid OpenSCAD_Model
